<?xml version="1.0" encoding="UTF-8" standalone="no"?>
<!DOCTYPE svg PUBLIC "-//W3C//DTD SVG 1.1//EN" "http://www.w3.org/Graphics/SVG/1.1/DTD/svg11.dtd">
<svg width="100%" height="100%" viewBox="530 0 1500 1500" version="1.1"
    xmlns="http://www.w3.org/2000/svg" xmlns:xlink="http://www.w3.org/1999/xlink"
    xml:space="preserve" xmlns:serif="http://www.serif.com/"
    style="fill-rule:evenodd;clip-rule:evenodd;stroke-linecap:round;stroke-linejoin:round;stroke-miterlimit:1.5;">
    <g >
    
    <path d="M394.627,80.077c-6.6,-11.43 -21.237,-15.352 -32.668,-8.753l-41.42,23.914c-11.431,6.599 -15.353,21.237 -8.754,32.668l239.37,414.599c6.599,11.431 21.237,15.353 32.667,8.754l41.421,-23.915c11.43,-6.599 15.352,-21.237 8.753,-32.667l-239.369,-414.6Z" style="fill:#db6565;stroke:#000;stroke-width:4.17px;"/>
    <path d="M735.566,455.303c-21.453,-37.158 -69.036,-49.908 -106.193,-28.455l-134.648,77.739c-37.157,21.453 -49.907,69.036 -28.455,106.193l449.36,778.314c21.452,37.157 69.036,49.907 106.193,28.454l134.648,-77.739c37.157,-21.452 49.907,-69.036 28.454,-106.193l-449.359,-778.313Z" style="fill:#fcffaa;stroke:#000;stroke-width:4.17px;"/>
    <path class="triangle" d="M772.829,830.799l-252.201,-341.167l82.841,-47.829l169.36,388.996Z" style="fill:#d8dd72;stroke:#4e5011;stroke-width:2.08px;"/>
    
    </g>
    
    </svg>